<svg height="32" viewBox="0 0 32 32" width="32" xmlns="http://www.w3.org/2000/svg"><path d="m16 0c-8.823 0-16 7.177-16 16s7.177 16 16 16 16-7.177 16-16-7.177-16-16-16zm0 1.527c7.995 0 14.473 6.479 14.473 14.473s-6.479 14.473-14.473 14.473c-7.995 0-14.473-6.479-14.473-14.473s6.479-14.473 14.473-14.473zm-4.839 6.296c-.188-.005-.375 0-.568.005-1.307.079-2.093.693-2.312 1.964-.151.891-.125 1.796-.188 2.692-.02.464-.067.928-.156 1.38-.177.813-.525 1.068-1.353 1.109-.111.011-.22.032-.324.057v1.948c1.5.073 1.704.605 1.823 2.172.048.573-.015 1.147.021 1.719.027.543.099 1.079.208 1.6.344 1.432 1.745 1.911 3.433 1.624v-1.713c-.272 0-.511.005-.74 0-.579-.016-.792-.161-.844-.713-.079-.713-.057-1.437-.099-2.156-.089-1.339-.235-2.651-1.541-3.5.672-.495 1.161-1.084 1.312-1.865.109-.547.177-1.099.219-1.651s-.025-1.12.021-1.667c.077-.885.135-1.249 1.197-1.213.161 0 .317-.021.495-.036v-1.745c-.213 0-.411-.005-.604-.011zm10.126.016c-.365-.011-.729.016-1.089.079v1.697c.329 0 .584 0 .833.005.439.005.772.177.813.661.041.443.041.891.083 1.339.089.896.136 1.796.292 2.677.136.724.636 1.265 1.255 1.713-1.088.729-1.411 1.776-1.463 2.953-.032.801-.052 1.615-.093 2.427-.037.74-.297.979-1.043.995-.208.011-.411.027-.64.041v1.74c.432 0 .833.027 1.235 0 1.239-.073 1.995-.677 2.239-1.885.104-.661.167-1.333.183-2.005.041-.615.036-1.235.099-1.844.093-.953.532-1.349 1.484-1.411.089-.011.177-.032.267-.057v-1.953c-.161-.021-.271-.037-.391-.041-.713-.032-1.068-.272-1.251-.948-.109-.433-.177-.876-.197-1.324-.052-.823-.047-1.656-.099-2.479-.109-1.588-1.063-2.339-2.516-2.38zm-9.188 7.036c-1.432 0-1.536 2.109-.115 2.245h.079c.609.036 1.131-.427 1.167-1.037v-.061c.011-.62-.484-1.136-1.104-1.147zm3.88 0c-.593-.02-1.093.448-1.115 1.043 0 .036 0 .067.005.104 0 .672.459 1.099 1.147 1.099.677 0 1.104-.443 1.104-1.136-.005-.672-.459-1.115-1.141-1.109zm3.948 0c-.624-.011-1.145.485-1.167 1.115 0 .625.505 1.131 1.136 1.131h.011c.567.099 1.135-.448 1.172-1.104.031-.609-.521-1.141-1.152-1.141z"/></svg>